HIERARCHY
ROOT Hips
{
	OFFSET -3.958830 18.904000 13.208200
	CHANNELS 6 Xposition Yposition Zposition Zrotation Yrotation Xrotation 
	JOINT LHipJoint
	{
		OFFSET 0.000000 0.000000 0.000000
		CHANNELS 3 Zrotation Yrotation Xrotation
		JOINT LeftUpLeg
		{
			OFFSET 1.800000 -1.400000 0.085000
			CHANNELS 3 Zrotation Yrotation Xrotation
			JOINT LeftLeg
			{
				OFFSET 2.215000 -6.000000 0.000000
				CHANNELS 3 Zrotation Yrotation Xrotation
				JOINT LeftFoot
				{
					OFFSET 2.500000 -6.900000 0.000000
					CHANNELS 3 Zrotation Yrotation Xrotation
					JOINT LeftToeBase
					{
						OFFSET 0.200000 -0.500000 1.950000
						CHANNELS 3 Zrotation Yrotation Xrotation
						End Site
						{
							OFFSET 0.000000 0.000000 0.000000
						}
					}
				}
			}
		}
	}
	JOINT RHipJoint
	{
		OFFSET 0.000000 0.000000 0.000000
		CHANNELS 3 Zrotation Yrotation Xrotation
		JOINT RightUpLeg
		{
			OFFSET -1.800000 -1.400000 0.085000
			CHANNELS 3 Zrotation Yrotation Xrotation
			JOINT RightLeg
			{
				OFFSET -2.215000 -6.000000 0.000000
				CHANNELS 3 Zrotation Yrotation Xrotation
				JOINT RightFoot
				{
					OFFSET -2.500000 -6.900000 0.000000
					CHANNELS 3 Zrotation Yrotation Xrotation
					JOINT RightToeBase
					{
						OFFSET -0.200000 -0.500000 1.950000
						CHANNELS 3 Zrotation Yrotation Xrotation
						End Site
						{
							OFFSET 0.000000 0.000000 0.000000
						}
					}
				}
			}
		}
	}
	JOINT LowerBack
	{
		OFFSET 0.000000 0.000000 0.000000
		CHANNELS 3 Zrotation Yrotation Xrotation
		JOINT Spine
		{
			OFFSET -0.087000 1.940000 -0.288900
			CHANNELS 3 Zrotation Yrotation Xrotation
			JOINT Spine1
			{
				OFFSET 0.000000 1.950000 0.060000
				CHANNELS 3 Zrotation Yrotation Xrotation
				JOINT Neck
				{
					OFFSET 0.000000 0.000000 0.000000
					CHANNELS 3 Zrotation Yrotation Xrotation
					JOINT Neck1
					{
						OFFSET 0.000000 1.600000 0.340000
						CHANNELS 3 Zrotation Yrotation Xrotation
						JOINT Head
						{
							OFFSET 0.000000 1.667000 -0.240000
							CHANNELS 3 Zrotation Yrotation Xrotation
							End Site
							{
								OFFSET 0.000000 0.000000 0.000000
							}
						}
					}
				}
				JOINT LeftShoulder
				{
					OFFSET 0.000000 0.000000 0.000000
					CHANNELS 3 Zrotation Yrotation Xrotation
					JOINT LeftArm
					{
						OFFSET 2.700000 1.550000 -0.730000
						CHANNELS 3 Zrotation Yrotation Xrotation
						JOINT LeftForeArm
						{
							OFFSET 5.450000 0.000000 0.000000
							CHANNELS 3 Zrotation Yrotation Xrotation
							JOINT LeftHand
							{
								OFFSET 3.450000 0.000000 0.000000
								CHANNELS 3 Zrotation Yrotation Xrotation
								JOINT LeftHandIndex1
								{
									OFFSET 0.750000 0.000000 0.000000
									CHANNELS 3 Zrotation Yrotation Xrotation
									End Site
									{
										OFFSET 0.000000 0.000000 0.000000
									}
								}
							}
						}
					}
				}
				JOINT RightShoulder
				{
					OFFSET 0.000000 0.000000 0.000000
					CHANNELS 3 Zrotation Yrotation Xrotation
					JOINT RightArm
					{
						OFFSET -2.700000 1.550000 -0.730000
						CHANNELS 3 Zrotation Yrotation Xrotation
						JOINT RightForeArm
						{
							OFFSET -5.450000 0.000000 0.000000
							CHANNELS 3 Zrotation Yrotation Xrotation
							JOINT RightHand
							{
								OFFSET -3.450000 0.000000 0.000000
								CHANNELS 3 Zrotation Yrotation Xrotation
								JOINT RightHandIndex1
								{
									OFFSET -0.750000 0.000000 0.000000
									CHANNELS 3 Zrotation Yrotation Xrotation
									End Site
									{
										OFFSET 0.000000 0.000000 0.000000
									}
								}
							}
						}
					}
				}
			}
		}
	}
}
MOTION
Frames: 10
Frame Time: 0.016667
-1.316140 16.009700 -2.607270 -13.512406 -33.010033 -0.224843 -15.569813 10.972378 4.822284 9.332103 -5.644371 -44.200080 -8.292598 17.419141 52.832388 0.750315 11.130860 0.860440 0.019340 -0.186610 -0.249570 18.324334 -9.094076 3.577390 4.448003 12.485137 -19.136315 5.957719 -17.721238 75.843250 -2.226795 -12.814154 0.468343 0.008480 0.792230 0.120600 -3.381532 -1.091860 -8.924199 -0.341520 5.368587 22.487278 -7.021843 8.259963 0.030342 1.465892 -6.321523 -6.212481 -12.667064 5.992726 32.394588 4.075660 -0.405790 0.549600 -15.387257 6.370976 -1.534569 -35.911822 -10.040255 1.591012 -121.796016 -73.289969 100.335159 -3.965534 2.872799 0.237600 0.390670 -0.380000 0.288340 11.525922 1.158100 3.129833 24.718531 -2.411076 -9.599436 -14.664006 63.997720 -6.681803 1.695316 -1.567995 -0.367540 0.410010 0.217730 0.038910 
-1.392270 15.950220 -2.563440 -13.222148 -32.076974 -1.394250 -15.648004 10.858263 4.717238 9.215919 -5.997648 -44.205702 -6.531622 17.670658 56.030035 0.862088 11.592022 0.725221 0.017820 -0.205310 -0.221350 18.282836 -8.679347 3.883027 1.288483 14.060007 -23.569182 9.816414 -23.723286 80.788517 -2.647079 -14.385748 0.060265 -0.008070 0.769250 0.125660 -3.261789 -1.395455 -9.102934 -2.089140 5.410627 23.421991 -6.109009 7.773783 -0.651761 1.404381 -5.703580 -6.198004 -11.619031 6.120621 32.882954 4.071940 0.284260 0.320300 -15.249694 6.012792 -1.649014 -34.973667 -10.491961 1.414798 -108.340278 -75.277513 86.511100 -4.152842 2.471260 0.269650 0.373380 -0.358350 0.276990 11.812299 1.077136 3.171984 26.846864 -2.858680 -10.776465 -22.164424 63.927164 -10.489355 1.644797 -1.448391 -0.372870 0.401150 0.214810 0.019640 
-1.460430 15.911450 -2.526790 -12.917016 -30.900865 -2.948364 -15.702291 10.799119 4.618452 9.489214 -6.288201 -43.438694 -5.911309 18.176296 58.105080 0.956115 11.968616 0.619071 0.004300 -0.250280 -0.157880 18.239842 -8.329804 4.174167 -2.062505 14.900218 -27.592367 13.217596 -29.121253 83.777988 -2.982827 -15.598607 -0.239600 -0.040530 0.718680 0.102070 -3.146349 -1.694900 -9.280392 -3.702864 5.323223 24.967475 -5.663166 7.142302 -1.164810 1.586653 -5.035132 -6.486525 -10.677505 6.165478 34.294921 3.631720 1.238480 0.102110 -15.841223 5.261587 -1.349972 -33.243773 -11.084080 2.479381 -86.707652 -79.889888 67.720162 -4.377678 2.370585 0.326570 0.332900 -0.329650 0.240550 12.335169 1.413320 3.382277 29.236760 -3.434907 -12.151462 -28.487796 63.825201 -13.767303 1.606902 -1.297490 -0.397840 0.401410 0.207940 -0.024430 
-1.524200 15.882930 -2.494070 -12.710766 -29.988497 -4.602344 -15.759506 10.751740 4.572647 10.481246 -6.380058 -42.490650 -6.573676 19.402309 59.617399 1.058379 12.433434 0.457048 -0.006980 -0.273810 -0.113570 18.191709 -7.991912 4.423182 -5.407303 15.267898 -31.272420 15.762368 -33.397693 85.693715 -3.242627 -16.479168 -0.449307 -0.070080 0.656610 0.104080 -3.012144 -2.027351 -9.459865 -5.281745 5.299990 26.942855 -5.378028 6.435924 -2.263689 1.903753 -4.233646 -6.494484 -9.593446 6.382974 36.226627 2.985350 2.448960 -1.191920 -16.570000 4.369040 -1.768232 -31.621789 -11.311206 0.385080 -52.201356 -77.357799 38.155450 -3.979979 3.318974 0.392310 0.294220 -0.278920 0.195070 12.612931 1.578858 3.687493 32.352186 -3.531273 -13.403741 -34.506490 64.167624 -17.064143 1.543478 -1.118056 -0.399900 0.393330 0.222690 -0.064670 
-1.585770 15.885440 -2.472430 -12.640700 -28.327461 -6.296676 -15.767219 10.775821 4.552444 11.617893 -6.610242 -41.026797 -7.826243 20.405437 59.955248 1.150351 12.640516 0.359182 0.036070 -0.226790 -0.058270 18.175311 -7.800324 4.578727 -8.355615 14.752824 -34.336062 17.290754 -35.403098 85.536007 -3.354003 -16.724113 -0.525089 -0.081810 0.548700 0.112850 -2.959480 -2.320826 -9.589808 -6.508687 4.791463 29.397324 -5.344750 5.238761 -3.319070 1.935167 -4.100693 -6.791854 -10.001627 7.159932 38.475437 3.227110 3.134600 -3.140560 -16.721151 3.284117 -2.050151 -31.295064 -11.682841 -1.612271 -28.798701 -71.376152 18.292126 -3.801193 3.284274 0.457040 0.212220 -0.192530 0.173580 12.918109 2.174267 4.247602 36.340894 -4.170020 -15.220827 -40.576573 65.980453 -21.289298 1.475620 -0.926217 -0.353920 0.352690 0.194720 -0.082900 
-1.623220 15.904050 -2.452010 -13.605974 -26.718039 -7.448926 -15.748516 10.820495 4.597987 13.790167 -6.628697 -39.470969 -9.776429 21.348426 59.232518 1.223528 12.724963 0.285843 0.083150 -0.175010 0.012470 18.176979 -7.752155 4.607084 -9.704678 13.835789 -35.777499 19.402639 -35.404652 81.690918 -3.280891 -16.257872 -0.459448 -0.100260 0.427480 0.155370 -2.953713 -2.473871 -9.694282 -6.292961 3.754418 31.721820 -6.005866 4.086056 -3.922448 2.519874 -3.387240 -7.102738 -9.236802 7.517912 41.346810 2.014080 4.549160 -4.326450 -19.043260 1.068101 -2.225537 -28.338151 -11.121556 -3.055972 -18.127149 -64.332303 10.108550 -3.723997 3.210121 0.494610 0.150730 -0.095950 0.149010 14.218775 3.288827 4.940840 39.176316 -5.517683 -17.298553 -45.886261 68.194832 -25.883260 1.410392 -0.726314 -0.278530 0.271820 0.157280 -0.100200 
-1.655890 15.910130 -2.434660 -14.528322 -25.229740 -7.551406 -15.742621 10.751512 4.727605 15.635472 -6.930197 -39.384420 -10.835228 22.071120 59.506688 1.224494 12.939728 0.173750 0.113180 -0.160030 0.078240 18.200529 -7.682725 4.605790 -10.773703 12.999341 -37.981446 20.886127 -33.983626 77.032611 -3.073958 -15.488563 -0.342710 -0.091800 0.350780 0.159860 -2.991995 -2.530759 -9.779939 -5.814678 2.517794 32.526427 -7.022776 2.865669 -3.785629 2.851029 -2.906524 -7.090292 -8.592637 8.186734 42.808136 1.283610 5.851530 -5.392020 -20.304995 -0.126643 -2.462364 -26.564362 -11.235710 -3.604207 -10.762988 -57.500367 5.407588 -3.694979 3.118245 0.540030 0.111050 -0.060600 0.107030 14.854418 3.326754 5.118897 42.129936 -5.561728 -18.429527 -47.055772 69.605063 -27.670652 1.367754 -0.633353 -0.272270 0.239130 0.156140 -0.145200 
-1.681010 15.928750 -2.427040 -15.352070 -24.042283 -7.399174 -15.740919 10.768747 4.833008 17.232145 -7.075740 -39.180992 -11.579960 22.380684 59.270395 1.226874 12.986328 0.143498 0.130720 -0.149020 0.114470 18.213011 -7.682896 4.549534 -11.217923 12.182393 -39.742606 21.372919 -30.814689 71.264896 -2.735535 -14.272411 -0.090769 -0.092350 0.304040 0.154780 -2.985996 -2.605278 -9.814974 -5.521957 1.559275 33.220936 -7.533432 1.865449 -4.281722 3.214087 -2.564337 -6.975049 -8.187420 8.363318 44.030030 0.611320 6.443120 -5.532730 -20.838869 -0.055671 -2.832645 -26.575328 -11.881365 -3.423507 -4.509342 -49.899028 2.298746 -3.672781 3.012606 0.562730 0.084340 -0.034490 0.099560 14.739700 2.482191 5.160000 44.965129 -5.642402 -19.110071 -44.593032 71.313037 -27.348410 1.386280 -0.666609 -0.266870 0.220320 0.135410 -0.162960 
-1.697520 15.946330 -2.407810 -15.979604 -23.496959 -6.688664 -15.735524 10.763041 5.013638 18.750339 -7.165718 -39.440944 -13.057958 22.907477 58.298249 1.247379 13.023770 0.150192 0.136000 -0.154020 0.132640 18.230427 -7.732295 4.418458 -11.102272 11.339029 -41.169148 20.607191 -26.206526 64.338170 -2.246689 -12.586532 0.304171 -0.094020 0.306980 0.137720 -3.003972 -2.615391 -9.818788 -4.868858 0.525620 32.675865 -8.431279 0.862569 -4.611918 3.431183 -2.575729 -6.763847 -8.431974 9.024047 44.804918 0.654460 6.862390 -4.009680 -21.701488 0.233383 -3.242976 -26.270435 -12.389776 -3.091103 0.525797 -41.997803 0.369264 -3.685808 2.915206 0.556630 0.082140 -0.041030 0.113130 15.190479 1.511530 5.117275 46.843259 -6.042366 -19.404359 -39.367752 73.309066 -25.569898 1.455491 -0.813160 -0.276970 0.221150 0.109470 -0.162630 
-1.722070 15.979970 -2.382550 -15.885036 -23.247541 -6.818789 -15.705972 10.951080 5.104960 19.478935 -7.125455 -38.392594 -14.751285 23.039106 56.213924 1.227000 12.829088 0.206488 0.158270 -0.127520 0.158010 18.222560 -7.996332 4.137494 -10.378557 10.196703 -40.780543 17.735512 -20.475075 56.926102 -1.665464 -10.465141 0.845704 -0.084840 0.290580 0.133780 -2.971727 -2.608666 -9.671927 -5.415540 -0.027781 32.182212 -8.998145 -0.040500 -4.557339 3.370059 -2.710195 -6.541272 -8.933619 9.661002 45.538483 0.735960 7.129010 -3.594770 -21.841549 0.957816 -3.509480 -26.426910 -12.301604 -3.019668 2.905078 -36.377415 -0.434806 -3.695035 2.867902 0.551780 0.067960 -0.024980 0.121540 15.492382 0.378723 4.925285 47.973291 -6.167907 -18.970830 -28.447022 74.766987 -19.921191 1.600202 -1.120595 -0.265110 0.215650 0.081500 -0.156450 
